<mxfile host="app.diagrams.net" modified="2022-02-18T05:04:24.135Z" agent="5.0 (Windows NT 10.0; Win64; x64) AppleWebKit/537.36 (KHTML, like Gecko) Chrome/98.0.4758.102 Safari/537.36" etag="DdXLq2Sed3H-6_DWRZZP" version="16.6.1" type="github">
  <diagram id="C5RBs43oDa-KdzZeNtuy" name="Page-1">
    <mxGraphModel dx="1199" dy="1835" grid="1" gridSize="10" guides="1" tooltips="1" connect="1" arrows="1" fold="1" page="1" pageScale="1" pageWidth="827" pageHeight="1169" math="0" shadow="0">
      <root>
        <mxCell id="WIyWlLk6GJQsqaUBKTNV-0" />
        <mxCell id="WIyWlLk6GJQsqaUBKTNV-1" parent="WIyWlLk6GJQsqaUBKTNV-0" />
        <mxCell id="Huc7dHjKUmyZpLPleGzr-2" style="edgeStyle=orthogonalEdgeStyle;rounded=0;orthogonalLoop=1;jettySize=auto;html=1;exitX=0.5;exitY=1;exitDx=0;exitDy=0;exitPerimeter=0;" edge="1" parent="WIyWlLk6GJQsqaUBKTNV-1" source="Huc7dHjKUmyZpLPleGzr-0">
          <mxGeometry relative="1" as="geometry">
            <mxPoint x="220" y="100" as="targetPoint" />
          </mxGeometry>
        </mxCell>
        <mxCell id="Huc7dHjKUmyZpLPleGzr-0" value="start" style="strokeWidth=2;html=1;shape=mxgraph.flowchart.terminator;whiteSpace=wrap;" vertex="1" parent="WIyWlLk6GJQsqaUBKTNV-1">
          <mxGeometry x="170" width="100" height="60" as="geometry" />
        </mxCell>
        <mxCell id="Huc7dHjKUmyZpLPleGzr-4" value="input : n1, n2 , n3" style="shape=parallelogram;html=1;strokeWidth=2;perimeter=parallelogramPerimeter;whiteSpace=wrap;rounded=1;arcSize=12;size=0.23;" vertex="1" parent="WIyWlLk6GJQsqaUBKTNV-1">
          <mxGeometry x="125.5" y="100" width="189" height="60" as="geometry" />
        </mxCell>
        <mxCell id="Huc7dHjKUmyZpLPleGzr-6" value="" style="endArrow=classic;html=1;rounded=0;" edge="1" parent="WIyWlLk6GJQsqaUBKTNV-1">
          <mxGeometry width="50" height="50" relative="1" as="geometry">
            <mxPoint x="210" y="160" as="sourcePoint" />
            <mxPoint x="210" y="200" as="targetPoint" />
            <Array as="points" />
          </mxGeometry>
        </mxCell>
        <mxCell id="Huc7dHjKUmyZpLPleGzr-7" value="" style="endArrow=classic;html=1;rounded=0;exitX=0.5;exitY=1;exitDx=0;exitDy=0;entryX=0.5;entryY=0;entryDx=0;entryDy=0;entryPerimeter=0;" edge="1" parent="WIyWlLk6GJQsqaUBKTNV-1" target="Huc7dHjKUmyZpLPleGzr-41">
          <mxGeometry width="50" height="50" relative="1" as="geometry">
            <mxPoint x="210" y="260" as="sourcePoint" />
            <mxPoint x="210" y="620" as="targetPoint" />
          </mxGeometry>
        </mxCell>
        <mxCell id="Huc7dHjKUmyZpLPleGzr-27" value="" style="edgeStyle=orthogonalEdgeStyle;rounded=0;orthogonalLoop=1;jettySize=auto;html=1;" edge="1" parent="WIyWlLk6GJQsqaUBKTNV-1" source="Huc7dHjKUmyZpLPleGzr-25">
          <mxGeometry relative="1" as="geometry">
            <mxPoint x="310" y="230" as="targetPoint" />
          </mxGeometry>
        </mxCell>
        <mxCell id="Huc7dHjKUmyZpLPleGzr-25" value="IS n1 &amp;lt; n2" style="rhombus;whiteSpace=wrap;html=1;" vertex="1" parent="WIyWlLk6GJQsqaUBKTNV-1">
          <mxGeometry x="170" y="190" width="80" height="80" as="geometry" />
        </mxCell>
        <mxCell id="Huc7dHjKUmyZpLPleGzr-30" value="" style="edgeStyle=orthogonalEdgeStyle;rounded=0;orthogonalLoop=1;jettySize=auto;html=1;" edge="1" parent="WIyWlLk6GJQsqaUBKTNV-1" source="Huc7dHjKUmyZpLPleGzr-28" target="Huc7dHjKUmyZpLPleGzr-29">
          <mxGeometry relative="1" as="geometry" />
        </mxCell>
        <mxCell id="Huc7dHjKUmyZpLPleGzr-35" value="" style="edgeStyle=orthogonalEdgeStyle;rounded=0;orthogonalLoop=1;jettySize=auto;html=1;" edge="1" parent="WIyWlLk6GJQsqaUBKTNV-1" source="Huc7dHjKUmyZpLPleGzr-28" target="Huc7dHjKUmyZpLPleGzr-34">
          <mxGeometry relative="1" as="geometry" />
        </mxCell>
        <mxCell id="Huc7dHjKUmyZpLPleGzr-28" value="Is n2&amp;lt;n3?" style="rhombus;whiteSpace=wrap;html=1;" vertex="1" parent="WIyWlLk6GJQsqaUBKTNV-1">
          <mxGeometry x="290" y="190" width="80" height="80" as="geometry" />
        </mxCell>
        <mxCell id="Huc7dHjKUmyZpLPleGzr-29" value="print n1,n2,n3" style="whiteSpace=wrap;html=1;" vertex="1" parent="WIyWlLk6GJQsqaUBKTNV-1">
          <mxGeometry x="414" y="200" width="120" height="60" as="geometry" />
        </mxCell>
        <mxCell id="Huc7dHjKUmyZpLPleGzr-32" value="yes" style="text;html=1;align=center;verticalAlign=middle;resizable=0;points=[];autosize=1;strokeColor=none;fillColor=none;" vertex="1" parent="WIyWlLk6GJQsqaUBKTNV-1">
          <mxGeometry x="383.5" y="210" width="30" height="20" as="geometry" />
        </mxCell>
        <mxCell id="Huc7dHjKUmyZpLPleGzr-37" value="" style="edgeStyle=orthogonalEdgeStyle;rounded=0;orthogonalLoop=1;jettySize=auto;html=1;" edge="1" parent="WIyWlLk6GJQsqaUBKTNV-1" source="Huc7dHjKUmyZpLPleGzr-34" target="Huc7dHjKUmyZpLPleGzr-36">
          <mxGeometry relative="1" as="geometry" />
        </mxCell>
        <mxCell id="Huc7dHjKUmyZpLPleGzr-39" value="" style="edgeStyle=orthogonalEdgeStyle;rounded=0;orthogonalLoop=1;jettySize=auto;html=1;" edge="1" parent="WIyWlLk6GJQsqaUBKTNV-1" source="Huc7dHjKUmyZpLPleGzr-34" target="Huc7dHjKUmyZpLPleGzr-38">
          <mxGeometry relative="1" as="geometry" />
        </mxCell>
        <mxCell id="Huc7dHjKUmyZpLPleGzr-34" value="Is n3 &amp;lt; n1?" style="rhombus;whiteSpace=wrap;html=1;" vertex="1" parent="WIyWlLk6GJQsqaUBKTNV-1">
          <mxGeometry x="290" y="290" width="80" height="80" as="geometry" />
        </mxCell>
        <mxCell id="Huc7dHjKUmyZpLPleGzr-36" value="print n3,n1,n2" style="whiteSpace=wrap;html=1;" vertex="1" parent="WIyWlLk6GJQsqaUBKTNV-1">
          <mxGeometry x="430" y="300" width="120" height="60" as="geometry" />
        </mxCell>
        <mxCell id="Huc7dHjKUmyZpLPleGzr-38" value="print n1,n3,n2" style="whiteSpace=wrap;html=1;" vertex="1" parent="WIyWlLk6GJQsqaUBKTNV-1">
          <mxGeometry x="270" y="390" width="120" height="60" as="geometry" />
        </mxCell>
        <mxCell id="Huc7dHjKUmyZpLPleGzr-40" value="yes" style="text;html=1;align=center;verticalAlign=middle;resizable=0;points=[];autosize=1;strokeColor=none;fillColor=none;" vertex="1" parent="WIyWlLk6GJQsqaUBKTNV-1">
          <mxGeometry x="370" y="360" width="30" height="20" as="geometry" />
        </mxCell>
        <mxCell id="Huc7dHjKUmyZpLPleGzr-43" value="" style="edgeStyle=orthogonalEdgeStyle;rounded=0;orthogonalLoop=1;jettySize=auto;html=1;" edge="1" parent="WIyWlLk6GJQsqaUBKTNV-1" source="Huc7dHjKUmyZpLPleGzr-41" target="Huc7dHjKUmyZpLPleGzr-42">
          <mxGeometry relative="1" as="geometry" />
        </mxCell>
        <mxCell id="Huc7dHjKUmyZpLPleGzr-45" value="" style="edgeStyle=orthogonalEdgeStyle;rounded=0;orthogonalLoop=1;jettySize=auto;html=1;" edge="1" parent="WIyWlLk6GJQsqaUBKTNV-1" source="Huc7dHjKUmyZpLPleGzr-41" target="Huc7dHjKUmyZpLPleGzr-44">
          <mxGeometry relative="1" as="geometry" />
        </mxCell>
        <mxCell id="Huc7dHjKUmyZpLPleGzr-41" value="IS n1&amp;lt; n3?" style="strokeWidth=2;html=1;shape=mxgraph.flowchart.decision;whiteSpace=wrap;" vertex="1" parent="WIyWlLk6GJQsqaUBKTNV-1">
          <mxGeometry x="160" y="479.9999999999998" width="100" height="100" as="geometry" />
        </mxCell>
        <mxCell id="Huc7dHjKUmyZpLPleGzr-42" value="Print n2,n1,n3" style="whiteSpace=wrap;html=1;strokeWidth=2;" vertex="1" parent="WIyWlLk6GJQsqaUBKTNV-1">
          <mxGeometry x="294" y="499.9999999999998" width="120" height="60" as="geometry" />
        </mxCell>
        <mxCell id="Huc7dHjKUmyZpLPleGzr-47" value="" style="edgeStyle=orthogonalEdgeStyle;rounded=0;orthogonalLoop=1;jettySize=auto;html=1;startArrow=none;" edge="1" parent="WIyWlLk6GJQsqaUBKTNV-1" source="Huc7dHjKUmyZpLPleGzr-51" target="Huc7dHjKUmyZpLPleGzr-46">
          <mxGeometry relative="1" as="geometry" />
        </mxCell>
        <mxCell id="Huc7dHjKUmyZpLPleGzr-49" value="" style="edgeStyle=orthogonalEdgeStyle;rounded=0;orthogonalLoop=1;jettySize=auto;html=1;" edge="1" parent="WIyWlLk6GJQsqaUBKTNV-1" source="Huc7dHjKUmyZpLPleGzr-44" target="Huc7dHjKUmyZpLPleGzr-48">
          <mxGeometry relative="1" as="geometry" />
        </mxCell>
        <mxCell id="Huc7dHjKUmyZpLPleGzr-44" value="is n3 &amp;lt;n2?" style="strokeWidth=2;html=1;shape=mxgraph.flowchart.decision;whiteSpace=wrap;" vertex="1" parent="WIyWlLk6GJQsqaUBKTNV-1">
          <mxGeometry x="160" y="619.9999999999998" width="100" height="100" as="geometry" />
        </mxCell>
        <mxCell id="Huc7dHjKUmyZpLPleGzr-46" value="print n3, n2, n1" style="whiteSpace=wrap;html=1;strokeWidth=2;" vertex="1" parent="WIyWlLk6GJQsqaUBKTNV-1">
          <mxGeometry x="327" y="640" width="73" height="60" as="geometry" />
        </mxCell>
        <mxCell id="Huc7dHjKUmyZpLPleGzr-48" value="print n2,n3,n1" style="whiteSpace=wrap;html=1;strokeWidth=2;" vertex="1" parent="WIyWlLk6GJQsqaUBKTNV-1">
          <mxGeometry x="150" y="749.9999999999998" width="120" height="60" as="geometry" />
        </mxCell>
        <mxCell id="Huc7dHjKUmyZpLPleGzr-50" value="yes" style="text;html=1;align=center;verticalAlign=middle;resizable=0;points=[];autosize=1;strokeColor=none;fillColor=none;" vertex="1" parent="WIyWlLk6GJQsqaUBKTNV-1">
          <mxGeometry x="260" y="510" width="30" height="20" as="geometry" />
        </mxCell>
        <mxCell id="Huc7dHjKUmyZpLPleGzr-52" value="start" style="strokeWidth=2;html=1;shape=mxgraph.flowchart.terminator;whiteSpace=wrap;" vertex="1" parent="WIyWlLk6GJQsqaUBKTNV-1">
          <mxGeometry x="150" y="1810" width="100" height="60" as="geometry" />
        </mxCell>
        <mxCell id="Huc7dHjKUmyZpLPleGzr-54" value="" style="edgeStyle=orthogonalEdgeStyle;rounded=0;orthogonalLoop=1;jettySize=auto;html=1;" edge="1" parent="WIyWlLk6GJQsqaUBKTNV-1" source="Huc7dHjKUmyZpLPleGzr-51" target="Huc7dHjKUmyZpLPleGzr-46">
          <mxGeometry relative="1" as="geometry" />
        </mxCell>
        <mxCell id="Huc7dHjKUmyZpLPleGzr-51" value="yes" style="text;html=1;align=center;verticalAlign=middle;resizable=0;points=[];autosize=1;strokeColor=none;fillColor=none;" vertex="1" parent="WIyWlLk6GJQsqaUBKTNV-1">
          <mxGeometry x="260" y="660" width="30" height="20" as="geometry" />
        </mxCell>
      </root>
    </mxGraphModel>
  </diagram>
</mxfile>
